<svg
        width="119.99999mm"
        height="115.82423mm"
        viewBox="0 0 119.99999 115.82423"
        version="1.1"
        id="svg5"
        xml:space="preserve"
        xmlns="http://www.w3.org/2000/svg"
>
    <defs
            id="defs2"/>
    <g
            id="layer1"
            transform="translate(-45.435697,-83.49056)"><path
       style="fill:#0b4f6f;stroke:none;stroke-width:0.16"
       d="m 116.74019,193.05234 c 0.0603,0.7735 0.19514,1.54602 0.48266,2.26833 1.81379,4.55566 6.5775,3.96958 10.55998,3.96958 2.57936,0 5.30732,0.10194 7.20358,-2.00903 2.10047,-2.33807 1.60257,-5.57145 1.60257,-8.48199 0,-1.38681 0.1532,-2.87936 -0.0419,-4.25312 -0.143,-1.00601 -1.34441,-2.4844 -1.11992,-3.4025 0.24895,-1.01777 1.09881,-2.06532 1.60077,-2.97718 1.20001,-2.18043 2.43427,-4.34145 3.634,-6.52145 3.90671,-7.09847 7.79512,-14.21251 11.78193,-21.2656 0.31296,-0.55362 0.66969,-1.50547 1.22811,-1.83905 0.75495,-0.45112 2.3279,-0.14574 3.18517,-0.14574 3.05686,0 6.02271,-0.10846 7.74159,-3.11895 0.3876,-0.6788 0.64453,-1.42792 0.73957,-2.20822 0.18843,-1.54516 0.0454,-3.18276 0.0454,-4.73855 0,-3.73976 0.32359,-8.01202 -3.91384,-9.57859 -1.57127,-0.58097 -3.3852,-0.34535 -5.03209,-0.34535 -0.6325,0 -1.65514,0.19564 -2.18351,-0.22727 -0.89683,-0.71792 -1.50557,-2.45092 -2.05267,-3.45877 -1.37208,-2.52819 -2.82664,-5.03924 -4.29042,-7.51385 -4.45492,-7.53156 -8.4873,-15.32314 -12.99088,-22.825071 -2.06162,-3.434211 -3.49842,-7.241504 -7.13745,-9.294626 C 123.87011,82.877818 118.95586,83.6054 114.6435,83.6054 H 87.386359 c -4.851909,0 -9.777485,-0.598444 -13.838239,2.646716 -2.901837,2.318971 -4.535028,6.486403 -6.329388,9.687329 -3.534342,6.304965 -7.158142,12.557055 -10.70276,18.855495 -2.343289,4.16381 -4.663765,8.35186 -7.073254,12.47581 -1.690544,2.89341 -3.744222,5.75746 -3.977906,9.2151 -0.316407,4.68184 2.004223,8.11 4.138177,12.05051 3.625385,6.69454 7.417212,13.29496 11.04258,19.98966 2.571257,4.7479 5.252939,9.43314 7.827692,14.17706 1.886333,3.47537 3.438873,7.08954 7.031783,9.06921 3.875822,2.13565 9.01694,1.28005 13.279115,1.28005 h 27.956031 m 32.56879,-64.2221 c -0.76501,0.51391 -1.56945,0.988 -2.17107,1.70677 -1.95846,2.34007 -1.46322,5.51545 -1.46322,8.35894 0,1.52304 -0.27298,3.35812 0.18996,4.82021 0.33325,1.05264 0.84805,2.03653 1.63977,2.81074 0.41096,0.40192 1.21008,0.75365 1.03563,1.44451 -0.27607,1.09319 -1.19694,2.27612 -1.74711,3.2586 -1.21735,2.1739 -2.45286,4.33803 -3.65386,6.52144 -3.96011,7.19968 -7.87312,14.44912 -12.00153,21.54913 -1.45622,-0.27417 -2.9959,-0.14176 -4.47296,-0.14176 -3.44614,0 -7.09035,-0.26327 -9.06139,3.26072 -1.02893,1.83933 -0.86301,3.91784 -0.86301,5.95437 H 88.64438 c -3.598224,0 -8.648897,0.97425 -11.741535,-1.18364 -1.50194,-1.04797 -2.193853,-2.63778 -3.055594,-4.20364 -1.250753,-2.27259 -2.500951,-4.54418 -3.772671,-6.80499 -4.99043,-8.87244 -10.123998,-17.7487 -14.801964,-26.79467 -1.881082,-3.63754 -5.736331,-8.00861 -5.323615,-12.33403 0.314715,-3.29844 2.800693,-6.40435 4.390341,-9.21509 3.505676,-6.1985 7.070407,-12.3651 10.563373,-18.57197 2.560494,-4.54955 5.179415,-9.06608 7.747876,-13.609975 1.318544,-2.332696 2.410647,-5.140803 4.811373,-6.51544 2.348449,-1.344738 5.368959,-0.856635 7.967471,-0.856635 h 16.214495 16.35428 c 2.73243,0 5.71898,-0.447627 8.10726,1.185146 1.57169,1.074509 2.29169,2.738087 3.21662,4.343909 1.46644,2.546202 2.91819,5.100908 4.37121,7.655615 5.18039,9.10863 10.74462,18.07944 15.61568,27.36174 m 2.09727,4.17075 c 1.99914,-0.51123 4.64587,-0.0594 6.70888,-0.0594 0.82513,0 1.81114,-0.10873 2.39668,0.61529 0.54724,0.67667 0.39893,1.69032 0.39893,2.50367 0,1.97458 0.10623,3.98318 -0.006,5.95436 -0.0413,0.72502 -0.39138,1.42791 -1.11279,1.66752 -1.90031,0.63115 -4.97211,0.0337 -6.98845,0.0337 -0.7871,0 -1.74851,0.15524 -2.27451,-0.58253 -0.50013,-0.70121 -0.38132,-1.72252 -0.38132,-2.53642 0,-1.91122 -0.16675,-3.91117 0.0239,-5.8126 0.0812,-0.81122 0.38328,-1.56586 1.23468,-1.78362 m -28.79514,50.89214 c 2.03423,-0.47649 4.62044,-0.0558 6.70931,-0.0558 0.80527,0 1.73943,-0.11313 2.3156,0.58594 0.51467,0.62449 0.34023,1.63476 0.34023,2.39124 v 5.67083 c -0.002,0.89797 -0.1349,1.75767 -1.11839,2.04533 -1.98795,0.58153 -4.7802,0.0814 -6.84908,0.0813 -0.77159,0 -1.73845,0.0873 -2.278,-0.59898 -0.5299,-0.6737 -0.37783,-1.7184 -0.37783,-2.51997 0,-1.98792 -0.22029,-4.12425 0.0258,-6.09613 0.092,-0.73679 0.49273,-1.33039 1.23231,-1.50364 z"
       id="path181"
    />
</g>
</svg>
